<?xml version="1.0" encoding="utf-8"?>
<!-- Generator: Adobe Illustrator 22.1.0, SVG Export Plug-In . SVG Version: 6.00 Build 0)  -->
<svg version="1.1" id="consumer-marketing" xmlns="http://www.w3.org/2000/svg" xmlns:xlink="http://www.w3.org/1999/xlink" x="0px"
	 y="0px" viewBox="0 0 216 216" style="enable-background:new 0 0 216 216;" xml:space="preserve">
<style type="text/css">
	.st0{fill:#EDEDED;}
	.st1{fill:none;stroke:#707070;stroke-width:6;stroke-miterlimit:10;}
	.st2{fill:#707070;}
	.st3{font-family:'TitilliumWeb-Bold';}
	.st4{font-size:17.8242px;}
</style>
<title>consumermarketing</title>
<path class="st0" d="M41.5,0h133c22.5,0,40.8,18.3,40.8,40.8v134.4c0,22.5-18.3,40.8-40.8,40.8h-133C19,216,0.7,197.7,0.7,175.2
	V40.8C0.7,18.3,19,0,41.5,0z"/>
<path class="st1" d="M75.7,52.9h64.6c2.3,0,4.2,1.9,4.2,4.2v69.4c0,2.3-1.9,4.2-4.2,4.2H75.7c-2.3,0-4.2-1.9-4.2-4.2V57.1
	C71.5,54.8,73.4,52.9,75.7,52.9z"/>
<circle class="st2" cx="95.2" cy="82.3" r="7.4"/>
<circle class="st2" cx="122.6" cy="82.3" r="7.4"/>
<path class="st2" d="M96,101.7h14.2c2.4,0,3.8,1.9,2.5,3.4c-3.5,3.9-10.4,8.7-19.1,0.1C92.1,103.7,93.5,101.7,96,101.7z"/>
<text transform="matrix(1 0 0 1 71.5078 162.7943)" class="st2 st3 st4">C</text>
<text transform="matrix(1 0 0 1 81.0439 162.7943)" class="st2 st3 st4">onsumer</text>
<text transform="matrix(1 0 0 1 71.5078 184.184)" class="st2 st3 st4">Mar</text>
<text transform="matrix(1 0 0 1 102.54 184.184)" class="st2 st3 st4">k</text>
<text transform="matrix(1 0 0 1 111.5586 184.184)" class="st2 st3 st4">eting</text>
</svg>
